<svg xmlns="http://www.w3.org/2000/svg" width="138" height="70" viewBox="0 0 138 70"><g><g><g><path fill="#81b3d3" d="M138 0H0l59.51 65.68c5.22 5.761 13.76 5.761 18.98 0z"/></g><g><path fill="#23a9e1" d="M36.69.46l32.148 37.879 32.02-37.65z"/></g><g><path fill="#fff" d="M61.104 14.717h17.32c-1.29-.8-4.355-4.582-6.043-3.176-.137.115-4.871-5.744-7.982-2.921-2.713 2.466-3.973-.323-7.048 1.63z"/></g><g><path fill="#491213" d="M102 0v15.04L69.056 54.245l-.22.275L36 14.583V.001h33.055zM44.254 8.102l3.546 4.212V1.154h-3.545zm-.507-6.948H40.52v2.514l3.227 3.839zm12.531 0h-3.726l3.726 4.585zm-4.302 0h-3.644l3.644 7.07zM48.31 12.349a37.771 37.771 0 0 1 3.586-3.151L48.31 2.224zm4.165-3.593a35.89 35.89 0 0 1 3.64-2.41l-3.64-4.48zm4.312-2.788a31.491 31.491 0 0 1 3.093-1.489l-3.093-2.741zm3.609-1.713l.358-.135V1.155h-3.859zm12.42-1.507l3.24-1.594h-3.24zm-3.759-.25l2.881-1.344h-2.881zm-.599-1.344h-2.764l2.764 1.285zm-3.585 0h-3.295l3.294 1.617zm-3.602 2.79a25.198 25.198 0 0 1 3.066-.875l-3.065-1.498zm4.121-1.065a20.562 20.562 0 0 1 2.248-.255l-2.248-1.05zm4.587-.258c.73.047 1.457.13 2.179.252v-1.26zm3.282.466c1.05.231 2.086.527 3.1.887V1.571zm3.608-1.933V4.16c.11.041.222.08.331.122l3.53-3.128zm8.797 7.06l3.634-7.06h-3.633zm-4.311-2.51l3.717-4.55h-3.717zm-3.628-1.208c1.065.436 2.107.928 3.12 1.474V1.73zM81.5 6.33c.794.448 1.53.902 2.194 1.34.515.339 1.002.678 1.465 1.012V1.863zm4.267 2.806a40.975 40.975 0 0 1 3.547 2.989V2.221zm4.065 3.484a.96.96 0 0 1 .046.046l3.5-4.102v-7.41h-3.546zm4.055-4.66l3.217-3.777v-3.03h-3.217zm-55.48-6.806l1.604 1.906V1.153zm10.79 12.817c2.654-4.542 6.456-5.222 10.546-.307 1.58 1.975 1.659 3.517 2.755 3.596 2.043.146 2.223-2.402 3.865-2.787 1.872-.44 2.414.322 3.351.688 1.007.394 1.779.271 2.263 1.24.631 1.261.697 2.527 2.902 2.893 4.375.728 7.589-2.601 12.077-3.217l2.515-2.945c-.105-.11-2.467-2.54-6.132-4.95-3.429-2.255-8.728-4.949-14.506-4.977-5.791-.032-11.016 2.653-14.383 4.912-3.656 2.453-5.959 4.94-5.983 4.964l-.09-.083zm-.001.001l19.638 23.33-19.638-23.33zM99.702 1.154h-2.08v2.444z"/></g><g><path fill="#23a9e1" d="M66.23 46.03l2.61-4.22 2.598 4.22-2.598 4.23z"/></g><g><path fill="#dc6243" d="M52.622 14.852c-2.624-.11-1.526-2.574.257-3.13 1.695-.53 5.25 1.117 6.39 2.211-1.808.557-4.146.477-6.134.57-.146-2.032-.62-1.324-.512.349zm6.163 8.142c-5.583-.046-1.809-8.655.091-8.134zm3.97-2.813c-.545 1.625-1.533 1.928-1.423-.045.126-2.276 1.609-1.73 3.2-2.602 1.324-.726 2.038-3.387 4.31-1.796 1.014.71 2.176.116 2.5 1.19-.016-.053-2.95 6.698-1.318 6.698-3.22 0-1.8-3.848-.568-6.431-1.198.574-3.143 4.344-1.546 4.964-.831 1.096-3.372 2.563-4.696 1.494-1.006-.811-.447-2.16-.46-3.473zm1.035 4.707c2.26-.458 4.666.509 1.63 1.528-2.265.682-5.273-.788-1.63-1.528zm4.466 1.437c-.477-1.082.365-2.371 1.74-1.435zm-1.92 3.03c-1.562-.488-6.828-.366-3.382-1.803zm6.78 2.154c-.473 1.392-9.058.9-10.123-1.733 1.979.3 6.214-.42 7.379 1.733.869-.847 1.813-.802 2.746 0zm-3.468 2.913c.352.222.582.48 1.007.69-1.046 1.243-2.641 1.333-3.624-.082 2.74-.734-.203-1.602-1.41-1.905 1.932-.423 4.216-.151 6.262-.056zm4.569-3.86c-3.433-2.022-2.564-3.526.23-4.93 1.462-.734 4.754-3.382 6.133-2.5z"/></g><g><path fill="#f49774" d="M71.773 25.834c-2.908-2.987 4.342-2.712 5.51-3.763.85.284 6.99-5.377 8.485-5.025-1.074 1.26-3.388 5.282-5.047 5.282-1.275 0-2.565-.19-3.552.718-1.444 1.33-3.837 2.006-5.396 2.788"/></g><g><path fill="#f4b1a4" d="M72.722 22.179c-1.592.856-3.098-2.536-.349-2.206 1.826.22 3.676-.154 5.42.147-1.25 1.487-3.056 2.306-5.07 2.059"/></g><g><path fill="#fff" d="M82.102 28.063c-.66-.025-1.582.358-2.057.88-.159.174 3.822 3.398 4.02 3.208.403-.387.276-.229.432-.422 1.255-1.513-.707-3.265-2.129-3.628a1.228 1.228 0 0 0-.266-.037zm1.06-1.58c.73.04 1.467.31 2.158.826.22.182.115.097.042.037.912.787 1.27 2.034.821 3.171-.26.615-3.096 4.108-3.207 4.015-.259-.211.012-.27-.094-.567-.062-.173-3.836-3.318-4.12-3.48-.332-.191-.6.218-.828-.113.641-.771 1.282-1.543 1.925-2.314.897-1.078 2.087-1.64 3.303-1.574zm3.12-4.279c-.373-.023-.723.077-.98.391-.815.996.462 2.126 1.207 2.664.744.537 2.124 1.314 2.924.474a.16.16 0 0 0 .018-.018c.133-.167.098-.128.05-.07.737-1.05-.697-2.217-1.477-2.738-.432-.289-1.12-.665-1.742-.703zm1.45-1.559c.7.051 1.366.324 1.9.778 1.532 1.254 1.617 3.438.385 4.934-1.236 1.482-3.398 1.8-4.916.55-1.505-1.267-1.628-3.445-.393-4.945.793-.907 1.916-1.393 3.023-1.317zm6.587-7.753l1.016 1.748a3.71 3.71 0 0 1 .621-.495h.002c.201-.127.418-.229.648-.293a422.87 422.87 0 0 0-2.287-.96zm.23-2.553c.18-.062.207.545.373.611.364.275 5.36 2.268 5.834 1.795.075.03.147.123.21.176l-2.143 2.576c-.043.051-.148-.08-.176-.105-.122-.1.08-.29.055-.457-.153-.994-1.758-.54-2.262-.227-.231.144-.798.435-.625.727.142.242.71 1.24.935 1.402.399.337.545-.225.845.035.107.093-.788 1.082-1.063 1.396l-.11.137a.478.478 0 0 1-.135.172l-.148.184c-.305.38-.635.751-.946 1.125-.335-.154-.086-.27-.034-.515.045-.209-.5-.797-.695-.79l-5.326.197c.973.806 3.484 2.935 3.83 2.992.342.038.374-.328.651-.1.078.064.046.058-.013.13l-1.169 1.418c-.368-.16-.023-.5-.268-.793-.142-.169-4.073-3.484-4.401-3.369-.303.105-.155.173-.37-.004-.062-.052-.067-.03-.032-.072l.861-1.043 1.48-1.795c.384.174.073.678.66.605.162.012 1.436-.057 1.906-.074-.258-.216-1.208-1.03-1.457-1.08-.287-.04-.407.287-.624-.028l.578-.695c.094-.114.43-.674.578-.697.315-.049.103.518.136.613.108.233 4.131 3.76 4.602 3.516.266-.724-2.711-5.764-3.255-5.492-.324-.17-.143-.263.025-.467l.815-.982.79-.95a.222.222 0 0 1 .089-.072zM76.928 38.404c1.132.942.885 2.48.132 3.58-.36.525-.817.964-1.294 1.383-.366.307-.638.522-.706 1.015l-2.26-1.647c.154-.404.52-.019.8.072.39.13.815.165 1.215.06.684-.183 1.377-.824 1.56-1.52.228-.865-.62-1.127-1.267-.824-.435.204-.842.505-1.249.76-.653.407-1.42.715-2.158.331-.648-.336-1.089-.99-1.089-1.726 0-.797.453-1.495.987-2.05.448-.464 1.233-.9 1.348-1.585.555.376 1.11.751 1.667 1.126.12.082.056.093-.028.224-.07.111-.766-.027-.946-.017-.596.036-1.196.297-1.5.837-.35.622.137 1.294.812.975.343-.164 2.628-1.864 3.976-.994zm3.992-4.352c-.085-.287-.454-.735-.072-.903.507.794 1.019 1.585 1.535 2.372-.552.156-3.232 3.732-3.485 4.036-.017.02-.17-.126-.164-.12-.124-.102.085-.293.02-.475-.102-.235-4.206-3.668-4.521-3.552-.024.008-.433.224-.427-.054.004-.122.357-.429.43-.517.508-.61 2.794-3.028 2.679-3.548.704.34 1.408.676 2.112 1.016-.107.398-.933.071-1.3.146-.55.11-1.008.442-1.36.87-.562.651.218 1.07.685 1.464.208-.25.456-.5.604-.79.2-.393-.318-.755-.143-.957.095-.107 1.852 1.016 2.115 1.17.251.145.046.25-.194.17-.874-.296-1.332.231-1.851.84.644.534 1.308 1.283 2.068 1.656.774.38 1.339-.953 1.409-1.519.054-.44-.016-.884-.14-1.305zm-24.23-6.77c.054.007.107.014 0 0a6.776 6.776 0 0 0-.01 0c-.96-.113-2.085.208-3.03.34-.647.091-2.172 1.576-2.27 1.856-.034.126.265.766-.074.706-.107-.02-.416-.484-.498-.58l-1.617-1.92c.257-.364.442.147.792.025.302-.106 1.435-1.092 1.755-1.362.642-.54 1.194-2.748 1.25-2.9.061-.17.082-1.145.058-1.126.274-.226.436.203.636.441l1.78 2.112c-.259.372-.479-.198-.832.092-.172.142-.606 1.422-.752 1.84.4-.07 1.904-.3 2.062-.578.156-.274-.26-.456.126-.63l1.447 1.712c-.223.33-.516.011-.824-.027zm-.01 0h.01-.01zm2.785 4.632c-.135.016-.279.052-.429.11-.993.399-1.999 1.4-2.42 2.386-.479 1.123.35 2.127 1.527 1.661.992-.392 2-1.403 2.419-2.385.403-.972-.15-1.88-1.097-1.773zm-1.183-1.387c1.158-.066 2.332.464 3.09 1.474 1.112 1.484.93 3.561-.5 4.766-1.685 1.201-3.767 1.008-5.059-.694-1.124-1.478-.938-3.55.492-4.753a3.35 3.35 0 0 1 1.977-.793zm9.227 8.921a.463.463 0 0 0 .258.063l-1.383 1.896c-.328-.152-.092-.353-.012-.604.117-.366.128-.76.05-1.136-.083-.398-.55-1.52-1.11-1.382-.36.09-.704.48-.984.714-.064.055.58.71.643.757.224.171.45.142.69.018-.063.033.468-.134.304.056-.163.192-1.294 1.51-1.696 1.98-.303-.165.087-.522.162-.762.114-.369.02-.704-.193-1.019-.13-.192-.359-.65-.577-.468-.594.496-2.224 1.844-2.304 2.084-.04.12.175.7-.136.65-.155-.026-1.493-1.772-1.96-2.326.211-.309.607.044.967-.206.167-.116 3.39-2.546 3.905-3.352.12-.188-.078-.465.034-.56-.024.021.153-.134.16-.124l.213.253c.356.424 2.222 2.97 2.97 3.468zm0 0c-.083-.056.09.045 0 0zM42.106 16.05c-.377.145-1.963.877-2.133.815-.368-.734-1.094-1.143-1.58-1.788-.567-.748-.898-1.65-.809-2.597.142-1.745 1.898-3.669 3.762-3.405.92.133 1.688.787 2.26 1.483.508.592.81 1.274 1.493 1.684-.558.712-1.116 1.422-1.676 2.133-.423-.187-.14-.508-.035-.836.163-.517.285-1.105.061-1.625-.51-1.174-1.905-1.214-2.84-.544-.946.678-1.697 1.926-1.344 3.117.36 1.218 1.581 1.665 2.727 1.328-.047.014-.46.136 0 0l.004-.002c.053.06.077.165.11.237zm5.584.358c-.248.033-2.749 2.128-3.753 3.012-.212.181-.614.464-.555.796-.009-.048.074.6-.145.381-.176-.176-.325-.383-.485-.573-.476-.564-.949-1.129-1.424-1.693.228-.333.41.065.72-.063.246-.1 4.273-3.369 4.215-3.778-.087-.607.218-.299.46-.012l1.59 1.894c-.218.318-.336-.026-.623.036zm-4.308 3.81v-.002.001zm7.74.721c-.743.633-3.778 3.16-3.928 3.403-.205.332.269.624-.133.807l-1.449-1.722c-.106-.127-.664-.616-.66-.786.008-.353.57.06.715.037.289-.048 3.022-2.365 4.143-3.305-.342-.384-.73-.709-1.27-.747-.363-.027-1.098.4-1.204-.03l2.054-1.126c.05.405 3.146 4.103 3.536 4.201l-1.456 1.84c-.433-.192.137-.823.175-1.198.055-.54-.19-.973-.524-1.374z"/></g></g></g></svg>