<svg xmlns="http://www.w3.org/2000/svg" width="457" height="352" viewBox="0 0 457 352"><g><g><g><path fill="#766458" d="M328.06 67.831h28.922v1.95H328.06zm-227.03 0h28.922v1.95H101.03zm154.65 11.612v.001zm0 .001c-2.292.888-3.018 1.776-3.018 2.55 0 .803 1.016.974 1.656-.144zm-38.925-.001v.001zm0 .001c-2.291.888-3.018 1.776-3.018 2.55 0 .803 1.016.974 1.654-.144zm45.338-14.909c-.795.005-1.812.554-2.522 1.772l-4.21 7.262c-.694 1.177-.318 1.636.349 1.636 1.276 0 3.108-1.404 4.936-4.304l2.292-3.964c.833-1.517.178-2.408-.845-2.402zm-41.445 1.772l-4.212 7.262c-.696 1.177-.318 1.636.349 1.636 1.278 0 3.108-1.404 4.938-4.304l2.292-3.964c.833-1.517.178-2.408-.845-2.402-.795.005-1.812.554-2.522 1.772zm54.925-1.972c-.752.044-1.77.678-2.532 1.97l-1.948 3.355c1.133.402 3.079.46 4.53-1.978l.435-.746c1.012-1.743.483-2.659-.485-2.602zm11.709-.405c-.766-.07-1.844.536-2.772 2.094l-1.452 2.44-2.295 3.93c-1.803 3.1 1.656 3.56 3.078 1.148l.03-.056a1.959 1.959 0 0 1-.289-1.005c0-.976.783-1.78 1.77-1.78h.148l2.208-3.731c1.029-1.744.559-2.95-.426-3.041zm-50.158 0c-.765-.07-1.843.536-2.772 2.094l-1.454 2.44-2.295 3.93c-1.803 3.1 1.658 3.56 3.081 1.148l.029-.056a1.95 1.95 0 0 1-.29-1.005c0-.976.784-1.78 1.771-1.78h.148l2.206-3.731c1.029-1.744.561-2.95-.424-3.041zm11.853-3.367c-.61.574-.61 1.175-.175 1.72l1.683 2.01c.988 1.176 1.482 2.239.437 4.046l-3.018 5.22c-.696 1.175-.321 1.635.346 1.635 1.336 0 3.458-1.979 5.634-4.474l.203-.23.008.004 2.896-4.937c1.278-2.179 3.542-3.442 5.167-3.442 1.887 0 3.164 1.634 3.164 2.868h1.772l-6.764 11.416c2.383-1.005 4.529-2.838 7.028-5.678l.175-.197 2.926-4.965c1.276-2.179 3.223-3.444 5.663-3.444 2.468 0 4.033 2.065 2.41 4.819l-.438.746c-2.263 3.873-5.923 4.247-7.867 3.443l-.29.518c-1.393 2.409-.291 3.555 1.567 3.555 2.119 0 4.907-1.977 7.083-4.473l.155-.178 1.237-2.09 1.482-2.55c1.741-2.985 3.541-3.903 5.864-3.903 2.849 0 4.527 2.953 2.699 6.08l-2.845 4.849c1.511-.03 3.194-.747 4.558-2.21l.199-.226 4.734-8.092h3.02l-5.893 10.152c-.378.631-1.132 1.75-.378 2.064.582.259 2.351-.889 4.644-2.953l5.37-9.265h3.02l-6.444 11.158c-.698 1.175-.32 1.634.347 1.634 1.336 0 3.455-1.976 5.631-4.472l.203-.229v-.002c2.729-3.155 5.456-7.055 6.706-8.748l2.264 1.205c-1.859 3.814-1.657 8.174-2.614 11.014a18.852 18.852 0 0 0 3.63-3.24l.203-.229c.434.116.957.575 1.13 1.034-2.264 2.61-5.312 5.02-8.388 5.42-.03 0-.061.027-.091.027-.288.03-.55.06-.84.06-2.759 0-3.31-2.412-3.31-2.412l1.89-.975s.404 1.09 1.42 1.09c2.871 0 2.236-5.564 3.426-8.66-1.075 1.405-2.586 3.496-4.298 5.448l.002.002c-2.498 2.869-5.372 5.506-7.868 5.506-1.917 0-2.874-1.263-2.584-2.868-1.451 1.376-3.308 2.868-4.964 2.868-1.727 0-2.474-1.392-1.661-3.465-1.182.545-2.412.853-3.357.853h-.668c-3.302 4.125-8.729 3.327-8.612-.578-2.105 1.827-4.546 3.19-7.004 3.19-2.432 0-3.954-1.357-4.09-3.225-2.507 2.393-4.917 3.841-7.377 4.599l-2.292 3.93c-2.176 3.67-6.616 3.069-6.616.2 0-2.238 2.551-3.873 6.616-5.106l.842-1.402c-1.017.631-2.034 1.004-2.874 1.004-1.732 0-2.669-1.036-2.619-2.422-1.638 1.427-3.312 2.422-4.842 2.422-2.44 0-3.341-2.036-2.061-4.246l3.193-5.479c.35-.601.202-1.204-.175-1.691l-.405-.489c-2.41 3.24-3.541 4.731-4.99 6.395-1.539 1.807-4.384 2.896-6.184 2.896h-.668c-3.273 4.091-8.631 3.341-8.61-.476-2.457 2.317-4.824 3.721-7.24 4.464l-2.292 3.93c-2.178 3.671-6.62 3.069-6.62.2 0-2.238 2.556-3.873 6.62-5.106l.843-1.404c-1.017.63-2.034 1.004-2.877 1.004-2.438 0-3.338-2.038-2.06-4.246l4.238-7.227c1.278-2.179 3.544-3.444 5.168-3.444 1.888 0 3.164 1.636 3.164 2.87h1.77l-6.763 11.414c2.382-1.005 4.528-2.836 7.025-5.676l.154-.176 1.238-2.092 1.484-2.553c1.74-2.982 3.54-3.9 5.86-3.9 2.847 0 4.53 2.954 2.7 6.08l-2.843 4.848c1.512-.029 3.193-.748 4.558-2.209l.203-.229-.002-.003c1.975-2.297 3.775-4.819 5.11-6.684l-.262-.344c-1.075-1.376-.931-3.07.783-4.59zm-45.878 3.77c-.753.044-1.772.678-2.536 1.97l-1.95 3.357c1.135.402 3.086.46 4.538-1.978l.438-.746c1.014-1.744.48-2.661-.49-2.604zm-18.301-8.242l-2.845 4.875h2.496l-.872 1.433h-2.467l-6.472 11.158c-.698 1.175-.321 1.635.346 1.635 1.336 0 3.457-1.978 5.633-4.474l.17-.19 8.423-14.438h3.019l-4.818 8.289c1.508-1.548 2.903-2.265 4.21-2.265 1.684 0 2.93 1.635 1.624 3.9l-4.355 7.543c-.696 1.175-.316 1.635.35 1.635 1.336 0 3.454-1.978 5.631-4.472l.176-.2 2.93-4.965c1.277-2.178 3.221-3.441 5.66-3.441 2.468 0 4.035 2.065 2.41 4.818l-.437.747c-2.264 3.871-5.922 4.245-7.868 3.44l-.29.52c-1.394 2.409-.29 3.555 1.57 3.555 2.118 0 4.904-1.978 7.082-4.475l.203-.226c.407.172.929.63 1.126 1.033-2.496 2.868-5.893 5.508-9.316 5.508-2.423 0-3.944-1.348-4.09-3.205-1.905 1.835-3.897 3.205-5.693 3.205-2.438 0-3.339-2.038-2.061-4.248l3.92-6.74c1.307-2.21-.755-2.957-5.399 2.81l-4.588 7.887h-3.046l.778-1.334c-1.315.984-2.63 1.621-3.853 1.621-2.438 0-3.339-2.038-2.062-4.246l6.069-10.383h-2.757l.87-1.434h2.729l2.845-4.877zm-24.943 7.839c-.766-.07-1.846.536-2.774 2.094l-1.452 2.44-2.297 3.93c-1.803 3.1 1.659 3.56 3.082 1.148l.03-.056a1.941 1.941 0 0 1-.29-1.005c0-.976.783-1.78 1.771-1.78h.146l2.206-3.731c1.03-1.744.563-2.95-.422-3.04zm-4.521-7.836l-2.846 4.875h2.499l-.872 1.437h-2.465l-6.476 11.163c-.697 1.176-.319 1.636.348 1.636 1.335 0 3.457-1.98 5.633-4.477l.156-.176 1.237-2.091 1.48-2.554c1.742-2.986 3.54-3.902 5.862-3.902 2.846 0 4.529 2.954 2.701 6.083l-2.845 4.848c1.511-.029 3.194-.744 4.558-2.208l.205-.228c.406.172.928.63 1.128 1.033-1.54 1.807-4.384 2.898-6.184 2.898h-.666c-3.269 4.086-8.616 3.342-8.61-.462-1.866 1.77-3.803 3.075-5.557 3.075-2.438 0-3.339-2.039-2.061-4.25l6.068-10.387h-2.757l.87-1.436h2.73l2.845-4.877z"/></g><g><path fill="#81b3d3" d="M162.567.351h7.677l-1.204 44.746h-14.47l-1.968-18.474-1.967 18.474h-14.533L134.96.351h7.616l.635 37.01h.824l4.76-37.01h7.552l4.888 37.01h.762zm32.26 37.01v7.736h-20.816V.35h20.816v7.67h-13.2v10.804h10.535v7.67h-10.535V37.36zm21.346 0v7.736H197.96V.35h7.616v37.01zm16.795-8.752l7.674-1.79v13.555c0 2.558-2.156 4.731-4.694 4.731h-11.42c-2.598 0-4.692-2.173-4.692-4.731V5.082c0-2.623 2.094-4.731 4.693-4.731h11.417c2.539 0 4.695 2.108 4.695 4.731v9.08l-7.674 1.79v-7.93h-5.52v29.346h5.52zM260.984.351c2.54 0 4.698 2.109 4.698 4.731v35.285c0 2.557-2.158 4.73-4.698 4.73H249.56c-2.6 0-4.696-2.173-4.696-4.73V5.082c0-2.621 2.096-4.73 4.696-4.73zm-2.982 7.67h-5.523v29.34h5.524zm31.902-7.67h7.548v44.747h-7.613v-21.99l-3.046 11.378h-7.423l-2.98-11.378v21.99h-7.615V.351h7.55l6.788 21.605zm32.789 37.01v7.736h-20.806V.35h20.806v7.671h-13.195v10.803h10.53v7.67h-10.53v10.867z"/></g><g><path fill="#fff" d="M115.663 288.995c7.262 4.833 2.034 18.381-9.262 18.379-13.22 0-15.545-14.567-7.628-19.617l1.527 1.926c-3.668 2.363-4.43 7.739-1.815 11.334a14.617 14.617 0 0 0 1.451-2.141l10.17-17.584c1.706-2.979 4.175-4.432 6.245-4.432 7.518 0 6.937 9.554-.688 12.135zm-9.333 15.475c9.147 0 12.67-13.04 3.81-14.895l-1.016-.108-6.352 11.008c-.583.98-1.235 1.925-1.889 2.689 1.416.798 3.195 1.306 5.447 1.306zm4.071-17.229c3.847-.073 5.989-.908 7.437-3.628 1.888-3.557-1.633-6.348-4.39-1.597l-3.047 5.224zm36.87 13.961c-2.64 2.325-5.352 4.058-8.44 4.052-3.263 0-5.219-1.979-5.12-4.615-2.775 2.601-5.46 4.615-8.788 4.615-4.466 0-6.502-3.703-4.14-7.734l3.96-6.788c1.597-2.761 4.033-4.358 7.083-4.358 3.087 0 5.05 2.615 3.015 6.1l-.545.945c-2.833 4.9-7.411 5.373-9.845 4.356l-.363.654c-1.744 3.049-.363 4.501 1.963 4.501 2.65 0 5.874-2.506 8.597-5.664l.254-.29c.121.055.237.12.347.194l3.756-6.44c1.596-2.758 3.678-4.357 6.73-4.357 3.086 0 5.047 2.615 3.013 6.1l-.544.945h-3.09l.545-.944c2.254-3.921-1.596-4.538-3.776-.798l-3.887 6.753c-1.743 3.049-.36 4.501 1.963 4.501 2.652 0 5.785-2.506 8.51-5.664l.253-.29c.206.097.4.22.576.363l3.83-6.609c1.598-2.758 4.431-4.357 6.465-4.357 2.472 0 4.106 2.217 3.96 3.814h2.144l-6.103 10.676c-.87 1.49-.399 2.07.436 2.07 1.672 0 4.323-2.507 7.048-5.665l.254-.29c.092.04.189.101.287.161l6.012-10.4h3.778l-7.373 12.854c-.474.8-1.417 2.216-.474 2.614.73.326 2.944-1.126 5.814-3.74l6.72-11.728h3.778l-8.064 14.127c-.871 1.49-.4 2.07.436 2.07 1.671 0 4.323-2.507 7.047-5.665l.135-.153c-.036-.047-.077-.092-.11-.138 3.416-3.994 6.83-8.932 8.392-11.074l2.833 1.525c-2.325 4.832-2.07 10.35-3.27 13.944a23.584 23.584 0 0 0 4.542-4.104l.254-.29c.034.008.069.033.104.045l3.67-6.29c1.596-2.76 4.032-4.356 7.082-4.356 3.087 0 5.049 2.613 3.015 6.1l-.545.943c-2.835 4.903-7.413 5.373-9.844 4.358l-.364.654c-1.744 3.049-.363 4.502 1.963 4.502 2.65 0 6.137-2.506 8.862-5.664l.254-.292c.508.218 1.162.798 1.416 1.308-3.124 3.633-7.375 6.972-11.661 6.972-3.14 0-5.067-1.83-5.125-4.315-2.384 2.152-5.137 3.84-7.912 4.207-.036 0-.071.035-.108.035-.365.036-.691.073-1.054.073-3.452 0-4.142-3.05-4.142-3.05l2.363-1.235s.51 1.382 1.78 1.382c3.598 0 2.798-7.047 4.287-10.967-1.317 1.742-3.16 4.319-5.247 6.747.032.05.075.1.1.15-3.125 3.633-6.72 6.973-9.844 6.973-2.397 0-3.598-1.597-3.234-3.632-1.815 1.743-4.14 3.632-6.212 3.632-1.861 0-2.818-1.303-2.4-3.344-2.151 1.955-4.356 3.344-6.369 3.344-1.924 0-3.086-1.016-3.27-2.469-1.814 1.489-3.704 2.468-5.229 2.468-2.564 0-3.76-1.819-3.134-4.058zm55.377-5.269c1.414.508 3.846.582 5.658-2.506l.545-.944c2.25-3.924-1.594-4.541-3.771-.799zm-51.55 4.951c-.871 1.49-.399 2.072.434 2.072 1.56 0 3.813-1.71 6.099-5.308l2.939-5.163c1.852-3.418-2.177-4.328-4.21-.8l-5.262 9.198zm-25.554-4.951c1.414.509 3.846.582 5.659-2.506l.543-.944c2.25-3.924-1.594-4.541-3.77-.799zm129.901 9.339c-3.091 0-5.014-1.776-5.124-4.207-2.43 2.4-4.979 4.205-7.274 4.205-3.052 0-4.178-2.578-2.58-5.376l4.904-8.538c1.635-2.797-.945-3.742-6.757 3.56l-5.738 9.992h-3.815l1.499-2.6c-2.014 1.751-4.061 2.964-5.939 2.964-3.05 0-4.176-2.578-2.578-5.377l7.591-13.153h-3.45l1.09-1.817h3.415l3.56-6.175h3.777l-3.56 6.175h3.125l-1.09 1.817h-3.09l-8.1 14.134c-.87 1.49-.398 2.07.437 2.07 1.672 0 4.322-2.506 7.047-5.667l.255-.291c.152.07.296.154.431.252l10.654-18.49h3.778l-6.03 10.5c1.887-1.962 3.631-2.871 5.266-2.871 2.107 0 3.67 2.072 2.035 4.942l-5.449 9.555c-.868 1.491-.398 2.071.437 2.071 1.672 0 4.323-2.506 7.046-5.666l.255-.292c.036.016.074.044.112.064l3.678-6.313c1.599-2.761 4.032-4.359 7.082-4.359 3.088 0 5.05 2.615 3.015 6.104l-.545.944c-2.833 4.905-7.41 5.376-9.844 4.36l-.363.653c-1.742 3.052-.363 4.505 1.962 4.505 2.653 0 6.14-2.506 8.865-5.666l.253-.292c.51.218 1.164.798 1.417 1.308-3.121 3.634-7.374 6.975-11.66 6.975zm.625-9.347c1.414.508 3.845.582 5.66-2.503l.544-.943c2.25-3.918-1.597-4.534-3.774-.798zm114.707 1.065c.51.217 1.164.798 1.42 1.302-3.125 3.635-6.72 6.976-9.845 6.976-1.924 0-3.086-1.015-3.268-2.47-1.818 1.49-3.707 2.47-5.232 2.47-2.278 0-3.482-1.44-3.282-3.333-2.146 1.949-3.971 3.333-5.981 3.333-3.051 0-4.175-2.578-2.578-5.376l4.903-8.538c1.636-2.797-.943-3.742-6.72 3.487l-5.776 10.065h-3.813l1.392-2.412c-1.943 1.649-3.91 2.774-5.72 2.774-1.923 0-3.087-1.016-3.27-2.47-1.814 1.49-3.704 2.47-5.23 2.47-2.154 0-3.342-1.286-3.298-3.024-2.037 1.785-4.485 3.024-6.384 3.024-3.052 0-4.179-2.579-2.58-5.374l3.997-6.937c.436-.764.255-1.528-.218-2.144l-.507-.619c-2.848 3.872-4.272 5.775-5.95 7.746.09.11.169.23.236.355-4.142 4.796-7.992 7.484-11.917 8.719l-2.907 4.977c-2.721 4.65-8.281 3.886-8.281.254 0-2.834 3.162-4.905 8.281-6.465l.983-1.71c-1.164.728-2.507 1.2-4.104 1.2-5.342 0-5.814-5.085-3.162-9.663l1.127-1.963c-3.051-1.598-4.76-4.504-4.76-7.52 0-2.543 1.198-5.121 3.888-7.047l1.233 2.217c-1.632 1.27-2.432 3.015-2.432 4.758 0 2.107 1.162 4.214 3.378 5.375l5.884-10.135c1.706-2.978 4.178-4.432 6.25-4.432 11.84 0 5.338 17.982-8.104 17.982a13.597 13.597 0 0 1-2.142-.181l-1.054 1.852c-2.25 3.851-1.78 6.43.8 6.43 2.941 0 5.231-2.507 7.229-6.031l.399-.655h3.778l-4.795 8.21c2.97-1.267 5.617-3.582 8.73-7.162a3.808 3.808 0 0 1-.259-.32c2.473-2.905 4.725-6.103 6.397-8.465l-.33-.436c-1.342-1.744-1.161-3.886.983-5.813l1.962 2.143c-.763.727-.763 1.49-.218 2.18l2.105 2.544c1.234 1.49 1.852 2.833.545 5.123l-3.777 6.611c-.87 1.49-.4 2.07.437 2.07 1.67 0 4.697-2.506 7.419-5.665l.206-.234 3.652-6.306c1.598-2.759 4.432-4.358 6.467-4.358 2.472 0 4.106 2.217 3.96 3.815h2.144l-6.103 10.682c-.87 1.49-.399 2.07.436 2.07 1.672 0 4.323-2.506 7.046-5.666l.256-.292c.125.058.245.126.36.203l6.036-10.447h3.779l-1.417 2.47c1.892-1.964 3.596-2.835 5.231-2.835 2.106 0 3.671 2.072 2.034 4.942l-5.45 9.555c-.868 1.49-.398 2.07.439 2.07 1.672 0 3.948-2.506 6.671-5.666l.255-.292c.074.033.155.086.234.132l3.698-6.38c1.599-2.76 4.43-4.359 6.465-4.359 1.563 0 2.799.908 3.453 1.962l5.557-9.591h3.778l-12.788 22.124c-.87 1.491-.398 2.071.437 2.071 1.673 0 4.327-2.507 7.047-5.667zm-83.105-4.652h.763c9.619 2.23 14.084-12.205 8.095-12.205-1.054 0-2.288.834-3.414 2.76zm-.88 15.986c-2.9 1.13-3.77 2.259-3.77 3.242 0 1.019 1.27 1.236 2.065-.184zm41.15-15.839c1.85-3.417-2.178-4.327-4.21-.8l-5.263 9.2c-.87 1.49-.4 2.071.436 2.071 1.56 0 3.81-1.71 6.098-5.306zm36.113 0h-.035c1.852-3.417-2.177-4.327-4.21-.8l-5.262 9.2c-.869 1.49-.397 2.071.437 2.071 1.595 0 3.918-1.781 6.206-5.525zm-121.5 40.513c.51.218 1.163.8 1.418 1.311-3.125 3.633-6.72 6.975-9.845 6.975-3.053 0-4.178-2.577-2.58-5.376l4.904-8.538c1.636-2.798-.944-3.741-6.72 3.489l-5.776 10.063h-3.815l2.54-4.394c-1.686.93-3.554 1.45-4.934 1.45h-.835c-4.237 5.358-11.265 4.155-10.745-1.122-3.252 3.219-6.366 5.178-9.524 6.172l-2.906 4.978c-2.722 4.65-8.282 3.886-8.282.253 0-2.832 3.197-4.941 8.32-6.465l2.07-3.56c-1.708 1.524-3.777 3.05-5.594 3.05-1.882 0-2.84-1.332-2.388-3.41-2.174 1.99-4.406 3.41-6.44 3.41-3.05 0-4.176-2.576-2.578-5.376l4.904-8.534c1.634-2.799-.945-3.742-6.722 3.488l-5.776 10.063h-3.813l1.392-2.411c-1.942 1.649-3.91 2.773-5.72 2.773-1.924 0-3.088-1.015-3.268-2.469-1.817 1.489-3.706 2.469-5.231 2.469-2.675 0-3.871-1.981-3.048-4.355-2.605 2.475-4.455 4.355-8.68 4.355-5.34 0-6.901-5.084-4.25-9.662l1.125-1.964c-3.05-1.598-4.758-4.505-4.758-7.518 0-2.546 1.197-5.122 3.887-7.05l1.235 2.218c-1.634 1.27-2.434 3.014-2.434 4.757 0 2.108 1.164 4.215 3.38 5.378l5.885-10.137c1.706-2.978 4.177-4.432 6.248-4.432 2.795 0 5.012 2.215 5.012 5.63 0 1.49-.473 3.233-1.526 5.086-2.978 5.195-7.556 7.267-11.589 7.267-.76 0-1.452-.077-2.142-.184l-1.055 1.852c-2.25 3.852-.688 6.431 1.89 6.431 3.743 0 5.835-2.507 8.56-5.667l.254-.292c.27.073.568.255.828.488l3.902-6.736c1.596-2.763 4.432-4.36 6.465-4.36 2.47 0 4.106 2.216 3.96 3.814h2.144l-6.104 10.68c-.871 1.492-.399 2.072.436 2.072 1.673 0 4.325-2.507 7.047-5.667l.254-.292c.125.058.245.125.36.202l6.037-10.445h3.78l-1.417 2.469c1.888-1.962 3.596-2.834 5.23-2.834 2.107 0 3.67 2.072 2.034 4.942l-5.448 9.553c-.871 1.492-.4 2.072.436 2.072 1.672 0 4.322-2.507 7.047-5.667l.254-.292c.115.054.226.116.331.187l6.028-10.43h3.777l-7.374 12.86c-.472.8-1.416 2.218-.472 2.616.726.326 2.979-1.163 5.886-3.85l6.682-11.626h3.779l-10.354 17.73c2.977-1.275 5.63-3.6 8.754-7.195l.254-.291c.119.054.233.118.342.19l1.62-2.77 1.852-3.233c2.18-3.778 4.431-4.94 7.338-4.94 3.562 0 5.668 3.739 3.38 7.701l-3.56 6.14c1.889-.037 3.997-.947 5.703-2.799l.255-.292c.17.08.331.177.482.29l6.087-10.533h3.779l-1.417 2.469c1.89-1.962 3.595-2.833 5.23-2.833 2.106 0 3.671 2.071 2.036 4.941l-5.45 9.553c-.87 1.492-.4 2.072.436 2.072 1.672 0 4.325-2.507 7.046-5.667l.254-.292zm-98.219-4.651h.763c5.808.952 10.172-6.357 10.172-9.881 0-1.381-.653-2.325-2.07-2.325-1.054 0-2.29.835-3.416 2.762zm20.435.148c1.852-3.418-2.176-4.326-4.209-.801l-5.262 9.2c-.87 1.492-.399 2.072.436 2.072 1.56 0 3.811-1.71 6.097-5.307zm27.534 15.838c-2.89 1.13-3.795 2.26-3.795 3.242 0 1.019 1.266 1.236 2.061-.184zm26.458-15.803c2.286-3.925-1.342-5.705-3.993-1.2l-1.814 3.088-2.867 4.977c-2.25 3.924 2.069 4.504 3.846 1.454l.037-.073a2.466 2.466 0 0 1-.362-1.269c0-1.238.98-2.255 2.213-2.255h.183zm111.832 5.799c-2.832 3.306-6.647 6.355-10.5 6.867-.036 0-.07.035-.105.035-.368.036-.694.072-1.056.072-3.45 0-4.141-3.049-4.141-3.049l2.362-1.235s.51 1.381 1.78 1.381c3.598 0 2.798-7.046 4.286-10.969-1.34 1.78-3.23 4.433-5.374 6.902-.016-.011-.033-.022-.047-.034.002.013.014.024.02.034-3.124 3.632-6.722 6.972-9.844 6.972-3.053 0-3.67-1.635-3.67-4.866v-3.013l-4.323 7.517h-3.815l2.105-3.652c-2.627 2.302-5.675 4.014-8.74 4.014-3.158 0-5.092-1.852-5.126-4.361-2.478 2.476-5.09 4.361-7.436 4.361-2.4 0-3.596-1.596-3.235-3.63-1.815 1.742-4.142 3.63-6.21 3.63-1.583 0-2.511-.94-2.5-2.477-1.78 1.231-4.439 2.115-6.358 2.37-.035 0-.071.035-.106.035-.364.036-.691.072-1.056.072-3.45 0-4.14-3.049-4.14-3.049l2.36-1.235s.51 1.381 1.78 1.381c3.598 0 2.798-7.046 4.288-10.968-1.344 1.78-8.538 11.04-10.68 13.51-.545-.364-1.092-.837-1.417-1.308 3.415-3.994 12.134-15.544 13.697-17.687l2.832 1.527c-2.325 4.83-2.07 10.35-3.269 13.944.788-.536 2.374-1.2 3.19-1.943l7.337-12.69h3.778l-7.374 12.856c-.473.799-1.416 2.215-.473 2.614.73.326 2.941-1.126 5.814-3.74l6.718-11.73h3.78l-8.065 14.128c-.87 1.49-.4 2.069.436 2.069 1.671 0 4.322-2.505 7.046-5.664l.255-.292c.073.032.155.086.233.132l3.717-6.378c1.598-2.758 4.034-4.358 7.085-4.358 3.085 0 5.048 2.615 3.014 6.102l-.545.943h-3.09l.545-.943c2.253-3.923-1.598-4.54-3.778-.8l-3.884 6.755c-1.743 3.05-.363 4.502 1.961 4.502 2.652 0 6.14-2.505 8.862-5.664l.256-.292c.25.12.482.274.69.457l10.773-18.688h3.779l-5.375 9.333c3.851-3.524 9.59-1.525 6.068 4.503l-1.016 1.742c-1.78 3.085-4.578 4.83-7.23 4.502v1.562c0 1.706.8 2.542 1.634 2.542 1.673 0 4.323-2.505 7.05-5.664l.253-.292c.015.005.03.02.045.025-.005-.007-.015-.015-.021-.025 3.415-3.995 6.831-8.934 8.39-11.077l2.836 1.527c-2.325 4.83-2.07 10.35-3.268 13.944a23.579 23.579 0 0 0 4.541-4.102l.255-.292c.545.144 1.2.727 1.417 1.307zm-25.081-2.971c.834 2.471 4.133 1.091 5.262-.871l1.812-3.124c1.343-2.29-1.632-3.961-5.986 2.107zm26.348 5.527a2.2 2.2 0 0 1 2.211 2.213c0 1.233-.982 2.175-2.212 2.175-1.232 0-2.176-.94-2.176-2.175 0-1.235.944-2.213 2.177-2.213zm12.059-22.124h3.774l-11.835 20.636h-3.813zM86.01 280.193a2.598 2.598 0 0 1-.825.571c-.326.146-.691.22-1.094.22a3.4 3.4 0 0 1-1.296-.252 2.93 2.93 0 0 1-1.059-.726 3.091 3.091 0 0 1-.572-1.045 4.007 4.007 0 0 1-.201-1.28c0-.852.15-1.64.454-2.36a5.98 5.98 0 0 1 1.295-1.92c.246-.248.526-.477.841-.691.314-.212.611-.393.892-.54.28-.144.52-.262.723-.35.201-.091.326-.147.371-.17l1.345 1.988c-.248.09-.521.208-.825.353a4.605 4.605 0 0 0-.855.538 2.948 2.948 0 0 0-.675.759c-.179.292-.28.63-.302 1.012.65 0 1.222.19 1.715.573.493.382.74.93.74 1.65a2.458 2.458 0 0 1-.673 1.67zm8.507-1.67c0 .291-.056.584-.17.875a2.38 2.38 0 0 1-.501.793 2.635 2.635 0 0 1-1.92.792 3.41 3.41 0 0 1-1.295-.252 2.919 2.919 0 0 1-1.058-.725 3.124 3.124 0 0 1-.572-1.045 4.036 4.036 0 0 1-.202-1.28c0-.852.152-1.64.454-2.36a5.997 5.997 0 0 1 1.295-1.92c.257-.257.54-.488.843-.69.286-.198.584-.378.891-.54.28-.144.521-.263.724-.352a7.99 7.99 0 0 0 .37-.167l1.345 1.988c-.28.104-.555.222-.824.352a4.575 4.575 0 0 0-.858.539c-.27.213-.492.466-.672.758-.18.292-.28.63-.303 1.013.65 0 1.222.19 1.716.572.49.381.738.93.738 1.649zm264.576 58.716c0-.293.056-.586.166-.877.113-.293.282-.556.505-.792.227-.235.5-.428.824-.572a2.66 2.66 0 0 1 1.094-.22c.45 0 .882.084 1.295.252.416.17.769.41 1.06.727.249.292.439.64.572 1.044.134.405.202.831.202 1.281a6.009 6.009 0 0 1-.454 2.358 6.013 6.013 0 0 1-1.296 1.92c-.258.257-.54.488-.844.691-.285.199-.583.38-.891.54-.28.145-.52.264-.724.352a9.7 9.7 0 0 0-.37.17l-1.345-1.99c.246-.089.519-.207.823-.352.304-.146.59-.326.86-.539.267-.214.492-.467.67-.76.182-.292.282-.628.304-1.01a2.712 2.712 0 0 1-1.716-.574c-.489-.38-.735-.931-.735-1.648zm-7.667-.877c.112-.293.28-.556.503-.792a2.59 2.59 0 0 1 .827-.572c.325-.146.69-.22 1.095-.22.45 0 .882.084 1.298.252.414.17.77.41 1.06.727.248.292.438.64.573 1.044.136.404.202.83.202 1.281 0 .85-.151 1.639-.455 2.358a5.98 5.98 0 0 1-1.296 1.92c-.259.257-.541.488-.843.691a9.289 9.289 0 0 1-.893.54c-.28.144-.52.264-.726.352-.125.054-.248.11-.37.17l-1.35-1.99c.25-.09.524-.207.828-.352.303-.146.59-.326.857-.539a2.93 2.93 0 0 0 .676-.76c.18-.292.28-.629.304-1.01-.65 0-1.225-.19-1.72-.574-.493-.38-.74-.931-.74-1.649 0-.294.057-.586.17-.877zM9.667 190.119c.077.078.116.155.116.233.078 0 .155.038.232.116 2.09 2.322 4.452 4.49 7.083 6.503 2.632 1.935 5.651 2.98 9.057 3.135.078 0 .155.04.232.117h.349c.077 0 .155.038.232.116h1.276c.388-.078.736-.155 1.046-.233a9.69 9.69 0 0 0 3.484-1.393c1.16-.697 2.05-1.549 2.67-2.555l.232-.465.232-.464c.155-.542.271-1.045.35-1.51.076-.464.115-.89.115-1.277 0-2.09-.93-3.832-2.786-5.226a19.944 19.944 0 0 0-5.806-3.368 16.8 16.8 0 0 0-2.439-.696 31.431 31.431 0 0 0-2.206-.581h-.232c-.078-.077-.155-.116-.232-.116a37.988 37.988 0 0 1-10.682-4.413c-3.33-2.09-5.612-5.071-6.85-8.942-.243-.81-.476-1.623-.698-2.439a27.874 27.874 0 0 1-.348-2.67 3.412 3.412 0 0 1-.116-.814v-2.787a15.59 15.59 0 0 1 .348-1.858c.24-1.581.63-3.137 1.161-4.645.542-1.548 1.239-2.942 2.09-4.18 2.477-4.104 5.65-7.046 9.521-8.826 3.949-1.781 8.051-2.671 12.308-2.671 1.007 0 2.013.077 3.02.232 1.087.078 2.171.194 3.25.348a39.73 39.73 0 0 1 8.244 2.323c2.787 1.084 5.341 2.361 7.664 3.832l-6.386 14.284a44.633 44.633 0 0 0-6.62-4.064c-2.32-1.162-4.836-1.742-7.546-1.742h-.93c-1.78.232-3.443 1.045-4.992 2.438-1.548 1.316-2.322 2.749-2.322 4.297v.697c.077.232.193.464.348.697.155.542.426 1.045.813 1.51.387.464.813.89 1.277 1.277.852.697 2.09 1.355 3.716 1.974 1.625.542 3.329 1.084 5.11 1.626 1.47.387 2.901.774 4.295 1.161 1.394.31 2.554.62 3.483.93 4.335 1.548 7.586 4.141 9.754 7.78 2.166 3.561 3.29 7.355 3.366 11.38v.581c0 .465-.038.93-.116 1.394v1.277c-.464 4.026-1.78 7.858-3.947 11.497-2.09 3.639-4.915 6.426-8.476 8.362a37.049 37.049 0 0 1-4.064 1.625 82.46 82.46 0 0 1-4.18 1.046c-1.15.23-2.313.386-3.483.464-1.116.152-2.241.23-3.367.232h-1.278c-4.644-.154-9.21-1.161-13.7-3.02-4.49-1.935-8.477-4.49-11.959-7.664zm59.406 23.834v-73.974h45.397v16.142H88.928v12.89h24.034v15.794H88.928v12.542h25.542v16.606zm79.912-16.606c.232 0 .465.039.697.116h.813c.31 0 .58.04.812.117h3.134a269.43 269.43 0 0 0 2.438-.233 30.599 30.599 0 0 0 5.92-1.045c1.936-.542 3.677-1.355 5.224-2.439 2.478-1.78 4.296-4.18 5.456-7.2a25.73 25.73 0 0 0 1.858-9.638v-.93c0-.309-.038-.619-.116-.928a23.151 23.151 0 0 0-2.09-8.478c-1.238-2.787-2.94-4.993-5.108-6.62a13.333 13.333 0 0 0-5.456-2.67 30.66 30.66 0 0 0-6.036-.813h-7.546zm32.393 9.639a33.61 33.61 0 0 1-11.843 5.11 80.444 80.444 0 0 1-12.889 1.742 59.559 59.559 0 0 1-3.715.116h-23.803V139.98h25.08c1.24 0 2.44.038 3.6.116a72.51 72.51 0 0 1 12.309 1.742 30.342 30.342 0 0 1 11.262 5.11c4.335 3.019 7.702 7.006 10.102 11.96 2.4 4.955 3.754 10.064 4.063 15.33.078.464.117.928.117 1.393v2.903c-.233 5.497-1.549 10.8-3.948 15.91-2.4 5.11-5.844 9.29-10.334 12.542zm82.746-23.862c.233-.851.388-1.703.465-2.555.078-.541.116-1.083.116-1.625.078-.542.116-1.046.116-1.51a8.46 8.46 0 0 0-.116-1.394v-1.393c-.387-3.33-1.393-6.542-3.02-9.639-1.625-3.097-3.87-5.497-6.735-7.2a30.791 30.791 0 0 0-2.322-1.045c-.774-.31-1.55-.58-2.324-.813a24.028 24.028 0 0 0-2.322-.348 11.817 11.817 0 0 0-2.323-.233c-3.948 0-7.587 1.24-10.916 3.717-3.329 2.477-5.652 5.767-6.968 9.87l-.232.465v.464c-.239.723-.433 1.46-.58 2.207-.155.697-.31 1.432-.465 2.206l-.232 1.626v2.439c0 .232.038.503.116.813.232 4.103 1.47 8.013 3.716 11.729 2.322 3.638 5.497 6.038 9.522 7.2l1.394.464c.464.078.968.155 1.51.232l1.393.233h1.394c4.103 0 7.78-1.2 11.033-3.6 3.329-2.478 5.729-5.768 7.2-9.871.232-.774.426-1.587.58-2.439zm-53.421-24.154c3.56-6.58 8.515-11.613 14.862-15.097 6.348-3.484 12.967-5.226 19.856-5.226.93 0 1.858.039 2.787.116 1.007.078 1.974.155 2.903.233a41.105 41.105 0 0 1 8.477 2.09c2.852 1 5.579 2.325 8.128 3.948 5.496 3.562 9.754 8.323 12.773 14.284 3.018 5.884 4.528 12.04 4.528 18.464 0 .774-.039 1.587-.116 2.439 0 .774-.078 1.548-.233 2.323a27.07 27.07 0 0 1-.929 4.877 36.031 36.031 0 0 1-1.51 4.645c-3.25 7.51-8.32 13.355-15.21 17.535-6.89 4.103-14.128 6.155-21.714 6.155-.544 0-1.087-.039-1.625-.116h-1.51a46.936 46.936 0 0 1-7.896-1.394 37.92 37.92 0 0 1-7.432-2.903c-6.502-3.406-11.611-8.245-15.327-14.516-3.716-6.348-5.574-12.929-5.574-19.742 0-1.006.04-2.013.116-3.02.077-1.006.232-2.05.465-3.135a43.65 43.65 0 0 1 1.625-6.039 36.924 36.924 0 0 1 2.555-5.922zm88.012 54.984V139.98h19.507l27.868 37.974a37.227 37.227 0 0 1 1.974 3.484 53.509 53.509 0 0 1 1.974 3.6l1.393 3.02c.464 1.006.93 1.973 1.393 2.902a23.1 23.1 0 0 0-.348-2.438c-.077-.774-.155-1.587-.232-2.439a91.712 91.712 0 0 1-.349-4.761 99.83 99.83 0 0 1-.116-4.994V139.98h19.391v73.974h-19.39l-28.1-38.206c-.774-.929-1.51-2.013-2.206-3.251a65.83 65.83 0 0 1-1.974-4.065c-.45-.975-.914-1.943-1.394-2.903a50.98 50.98 0 0 0-1.16-2.787c.386 2.4.696 4.839.928 7.316.232 2.477.342 4.955.348 7.432v36.464zm110.134-27.649h20.08l-7.545-24.496a200.642 200.642 0 0 1-1.16-3.599c-.3-1.27-.571-2.548-.813-3.83-.155-.466-.271-.89-.348-1.278-.078-.464-.155-.89-.233-1.277-.077.387-.193.813-.348 1.277-.077.387-.155.812-.232 1.277-.077.155-.115.31-.115.464 0 .078-.04.194-.117.349a42.816 42.816 0 0 1-.812 3.366 49.862 49.862 0 0 1-.813 3.251zm-28.105 27.649l25.426-73.974h25.194l25.658 73.974h-20.201l-3.715-13.355h-28.561l-3.831 13.355z"/></g></g></g></svg>